<svg xmlns="http://www.w3.org/2000/svg" width="520" height="520" stroke="none" stroke-linecap="round" stroke-linejoin="round" fill="#000" fill-rule="nonzero"><path d="M261.8544 4.0457c-20.9423 2.9178-42.0834 8.8174-57.6576 16.1438-16.0379 7.5202-34.1972 21.3303-45.331 34.3614-12.7247 14.9774-20.7433 30.6664-24.19 47.3289-1.4581 7.2616-3.7111 26.7765-3.7771 33.3901-.0665 3.0467-.2652 7.1311-.4646 9.0764l-.4628 3.5658-4.507.3889c-5.567.454-7.3564 1.6855-10.2066 6.8078-3.446 6.224-4.5068 11.5404-4.5068 22.3027.0666 11.3461.1329 11.5404 9.3452 36.3718 11.5312 31.1204 15.3751 38.8355 23.2622 47.2642 5.3009 5.5755 9.0127 7.2611 15.3087 7.002l4.4402-.1946.1984 2.2692c.3316 3.9547 2.1211 15.4951 3.1162 20.1633 1.2585 5.8351 1.2585 10.3084 0 12.0589-.5309.7783-2.5855 2.2695-4.5072 3.3715-3.7774 2.1395-9.345 7.5208-15.1762 14.6526-4.2412 5.1867-10.1403 10.2438-23.3951 20.1634-13.7851 10.3085-19.2856 13.7447-35.2571 22.0435-46.9887 24.572-49.9043 26.2578-54.4103 30.9905-3.1816 3.3715-4.1759 6.4183-4.1759 12.837 0 7.3915 3.2474 15.0419 9.8749 23.146 4.6388 5.705 19.7497 20.4227 26.3106 25.6095 3.3135 2.658 8.6818 6.5482 11.9954 8.688 8.5494 5.5756 30.2203 17.6992 40.3606 22.4967 27.5036 13.0318 63.4897 23.5998 96.2295 28.203 45.264 6.3537 87.6128 4.4085 127.7751-5.8353 38.902-9.9841 77.739-28.3969 110.7424-52.5151 8.151-6.0295 26.9734-24.1828 30.817-29.8235 6.164-9.077 7.4228-15.5604 4.1088-22.0437-2.3191-4.5382-8.9467-11.3461-14.7117-15.1713-11.4-7.4554-38.1746-19.4501-67.0028-29.9532l-38.1737-14.5873c-.4642-.7783 2.9819-9.5309 6.6932-16.7922 7.5555-14.7823 16.3043-34.5566 20.3462-46.0323 6.0974-17.5696 9.4773-38.3817 9.4113-59.3231 0-10.4384-.2652-14.4577-1.3922-20.7471-2.3199-12.5773-2.4517-14.7163-.862-23.34.7958-4.2791 1.657-10.1141 1.989-12.9666.7949-7.2616-.8621-48.6256-2.3864-60.1018-4.2412-31.703-24.3227-61.7211-54.4097-81.3012-21.9364-14.2639-40.2948-19.5797-69.1238-20.034-7.8202-.1293-15.1104-.0645-16.2373.0654zm35.5893 10.8922c25.3164 5.3159 47.9156 17.2458 64.8812 34.232 15.5744 15.4952 26.2446 36.7611 29.3597 58.2207.9939 6.9375 2.8494 56.1464 2.1868 56.795-.1988.1941-1.9219-1.0375-3.8437-2.6588-10.273-8.6227-23.6595-12.6422-35.5891-10.7619-14.315 2.2689-22.4004 11.9942-23.1962 27.7489-.5296 11.2809 3.5792 24.8963 8.947 29.8884 2.3863 2.2041 2.519 2.2694 2.7176.843.1326-.7783-.3974-4.3441-1.1928-7.9746-1.7891-7.8451-1.6564-14.4582.3319-15.8198 1.656-1.2319 8.4825-1.1668 10.9343.0652 1.0613.5186 2.0549 1.4916 2.254 2.1395.3973 1.2313 2.9821 2.7227 4.705 2.7227.4641 0 1.8556-.7778 2.9823-1.6856 1.8556-1.5559 2.4523-1.685 5.5008-1.361 1.8556.259 5.2353 1.2961 7.4224 2.3334 4.9704 2.399 10.6701 4.6036 11.8627 4.6036 1.6575 0 .3984-2.3989-3.3134-6.3539-2.717-2.9827-4.8379-4.4737-9.0129-6.4836-3.049-1.4259-6.8263-2.9173-8.4832-3.3063-4.838-1.1026-13.3872-1.5562-16.3695-.843-3.1813.7131-3.2478.6488-1.6567-2.3989 1.5242-2.9821 5.1698-4.8624 12.0616-6.2238 5.9646-1.2322 15.044-1.1025 22.4668.3241 3.9761.7131 4.6389.519 3.3799-.9725-1.3249-1.5563 0-2.399 3.3797-2.1395l2.9161.1946-.1321 5.1217c-.1327 2.8526-.4641 6.159-.8618 7.4557-1.1931 4.1493-.7955 16.8572.7291 23.7943 2.5846 11.8645 2.7171 21.46.5957 40.4566-2.5833 22.9507-9.2111 42.6609-23.9246 71.5117-3.247 6.3536-7.0908 14.4582-8.5488 18.0235-3.5788 8.7528-5.2357 11.8651-8.947 16.6625-5.5667 7.2614-14.8452 13.032-25.1835 15.7547-6.6279 1.7505-24.3226 2.1394-31.8113.6483-11.3332-2.2042-17.2979-5.1866-23.9246-11.8644-15.4422-15.6256-27.2386-32.4816-39.3668-56.6002-7.9525-15.7546-8.7482-18.2183-9.146-28.2022-.3315-9.4015.3316-14.3937 3.1813-24.1834 1.9223-6.5483 2.1208-9.5307.5963-9.5307-1.4574 0-4.5065 2.0095-7.0246 4.7325-4.7718 5.0573-7.3565 11.2814-9.2123 22.1085-2.5847 15.0416-.6624 21.006 18.2252 56.3409 3.3801 6.3538 5.9653 11.7349 5.7659 11.9295-.7951.7779-5.1687-4.0845-9.8086-10.7622-5.7655-8.4287-13.8511-24.4429-16.2366-32.1576-1.5244-5.1224-1.7897-6.9378-1.7897-15.2367-.0662-6.872.2653-10.7622 1.1932-14.5873 2.1206-9.1419 5.6994-20.6171 8.1514-25.934 3.7773-8.4283 6.2955-14.717 5.8983-15.0412-.1322-.1942-1.9217.1945-3.8439.8432-2.5182.7778-4.7056 2.2043-7.6875 4.9918-3.9763 3.7602-6.0311 4.5384-4.1088 1.5562l4.7058-7.9094c2.9154-4.8634 3.5782-6.5488 2.8492-6.6781-1.5244-.389-9.0794 2.334-12.5259 4.4733-1.7232 1.0374-3.2475 1.8157-3.4459 1.6208-.8613-.8425 2.5841-5.7702 7.0912-10.1142 2.7166-2.658 5.4344-5.4457 5.9641-6.0939.9283-1.2321.8621-1.2321-2.7169-.8432-2.0548.1945-5.2358 1.1023-7.0914 2.0099-3.9759 1.9454-4.1083 2.0096-4.1083.7781 0-1.6208 4.3072-4.6683 9.6754-6.8722 2.9164-1.1673 5.3681-2.2046 5.5009-2.3344.5962-.5839-2.1871-2.7876-3.9766-3.1766-2.3198-.5188-3.7774-2.5935-2.1868-3.1768.5963-.1948 2.5181-.3889 4.374-.3889 3.3799 0 10.2065-1.6213 10.8023-2.5289.1326-.3239-.9271-.7132-2.3855-.9723-1.5253-.2596-3.5787-.843-4.6395-1.3613-2.452-1.2971-6.4282-4.6684-7.2893-6.2893-.6634-1.2317-.5306-1.2317 4.5726-.8432 4.7713.4545 5.368.3895 5.9643-.7129.9938-1.8801 4.2413-13.9393 3.844-14.3283-.5965-.5832-3.5126 1.5559-7.8202 5.7707-2.1878 2.1394-4.1087 3.6951-4.3078 3.5005-.7958-.7777 2.5844-9.4009 5.2362-13.3555 3.4459-5.1217 11.0003-12.9668 17.9592-18.6075 2.8495-2.3339 5.0368-4.344 4.9042-4.5382-.4633-.3894-9.8083 3.0466-14.0501 5.2515-2.4515 1.2319-6.2956 4.2791-10.2059 7.9745-8.6815 8.4282-9.1453 8.234-3.6445-1.3616 6.8919-11.9943 12.3928-18.2183 22.3339-25.3502 2.8495-2.0097 5.0369-3.825 4.8383-4.0197-1.4582-1.4261-18.7559 5.8353-27.5033 11.5407-3.6456 2.334-5.3684 3.0474-5.3684 2.1395 0-1.1671 9.9406-13.0319 13.3873-15.9491 8.4823-7.2615 9.0126-7.78 7.1573-7.3268-4.3747 1.1672-14.4481 5.1876-17.2313 6.8729-3.2476 1.9449-4.6393 2.334-4.6393 1.2316s12.3938-14.004 15.773-16.403c1.7229-1.2963 3.7117-2.9171 4.4406-3.6954l1.2589-1.3616-1.9213.3897c-3.977.9073-11.4657 3.5654-18.0934 6.353-6.4281 2.7237-9.8084 3.242-9.2118 1.4915.1331-.3895 4.9041-4.3437 10.5384-8.8175l10.2052-8.234c-.6629-.7133-17.7612 5.1218-19.6169 6.678-1.2594 1.0374-4.6391 1.8802-4.6391 1.1025 0-1.0378 5.8317-7.067 9.4768-9.7901 1.9885-1.5563 5.9646-4.0848 8.8151-5.6407 3.7774-2.1396 4.7712-2.9176 3.5786-2.9176-3.6451.0648-10.273 2.0099-18.0268 5.3164-1.6565.7132-3.5782 1.1671-4.2413.9075-.9939-.3888-.9939-.5835.4643-2.0746 2.9817-3.1766 11.5977-9.2059 16.5017-11.5407 4.8376-2.3334 7.6216-4.2787 6.1634-4.2787-2.1873 0-14.1161 3.5011-20.5446 6.0296-4.1094 1.6205-7.6218 2.7229-7.7546 2.5286-.9937-1.7505 2.6514-5.3169 11.3991-11.0216 9.0132-5.9651 16.1047-9.077 24.6547-10.827l4.307-.9083-5.6332.324c-7.6873.454-17.6949 1.945-26.3105 3.8255-2.3862.5187-1.1933-1.2968 2.3194-3.5009 3.9101-2.4639 22.7321-10.6327 29.2929-12.7724 2.7174-.9075 6.0311-2.1396 7.2902-2.8529l2.3194-1.2317h-5.6333c-3.1145 0-8.0189.389-10.9347.9076-7.3567 1.2966-16.1046 1.9452-15.2432 1.1669.8619-.8428 11.9956-5.2513 20.8766-8.2985 7.4888-2.5288 27.7682-7.7153 35.7872-9.1413 8.218-1.4266 28.299-.7782 37.9087 1.2966zM138.586 157.5725c5.368 2.3988 11.5979 8.6876 13.5856 13.6802 1.4587 3.8251 2.6516 12.6422 1.6575 12.6422-.2653 0-1.8557-1.4909-3.513-3.3064-6.3621-6.9371-17.6943-14.1989-22.1342-14.1989-1.6578 0-3.1157 1.167-4.3745 3.6309-.8618 1.6856-2.7832 13.4857-2.8497 18.0237l-.0666 3.3061-.6626-2.917c-.3312-1.6209-.4635-7.9098-.3977-13.9392.1985-9.9843.3977-11.2812 1.7234-13.8099 2.1866-4.0196 4.8371-5.4462 9.5427-5.1217 2.0547.1943 5.4349 1.1021 7.4891 2.01zm.5302 29.6941c1.2588 1.6202 1.2588 1.6853-.2652 4.4732-2.0544 3.9549-2.5179 12.772-.9278 17.5702 1.7233 5.3812 6.7602 12.7072 12.3275 18.0236 6.8917 6.5482 7.2895 7.5856 7.952 18.1535.3316 4.7978.3977 9.2065.1991 9.8548-.994 3.1768-5.2357.454-8.4826-5.4457-2.3198-4.2143-2.0547-5.4465 1.5901-6.8079 1.4584-.5832 2.6512-1.4265 2.6512-1.9448 0-1.621-3.5123-4.1496-9.7426-7.002-6.7597-3.1123-8.6156-4.9924-12.5254-12.902-3.5787-7.2616-3.9764-10.2441-2.3197-19.3857 1.5241-8.169 3.1151-12.7072 5.5009-15.236 1.6566-1.6858 2.3194-1.6206 4.0425.6488zm33.8661 134.595c6.0969 14.458 22.0024 32.9362 39.366 45.7078 16.8337 12.3838 42.6142 24.7019 56.598 27.0361 2.452.4536 4.9039 1.1021 5.5001 1.5555 1.6577 1.167.2652 3.9553-4.5726 8.8176-8.6155 8.623-19.6169 23.3399-24.2557 32.4167-3.1814 6.1595-6.3629 14.6526-7.2908 19.2559-.463 2.2696-1.0602 4.0846-1.259 4.0846-.2651 0-1.1265-1.2964-1.9215-2.9824-1.7232-3.501-10.8693-19.0609-21.4729-36.5659-11.3987-18.9318-17.0981-29.111-25.714-45.9677-14.3806-28.2027-20.611-46.2265-20.0145-58.3504.1323-2.7229.1986-2.788 1.3908-1.7507.6634.5838 2.3205 3.6307 3.6461 6.7429zm28.4314 15.171c1.1926.7781 5.8981 4.9924 10.5371 9.2715 4.6397 4.344 11.3989 10.0491 15.0441 12.7073 3.6452 2.5934 6.4947 4.9273 6.3622 5.0568-.4642.4543-12.6583-6.937-18.0267-10.8922-8.4168-6.2237-19.0202-17.5696-16.3691-17.5696.1985 0 1.3256.6484 2.4524 1.4262zm141.3609 35.2695c-.1989.5188-.6624 6.2892-1.0604 12.7726-1.4578 24.8963-3.7116 53.4878-5.0366 62.3699-3.3138 23.4053-6.2299 36.5017-9.4776 43.2447-2.1205 4.2788-3.181 5.3167-5.0363 4.6685-1.2592-.5193-1.9886-2.9181-3.9098-12.7079-1.7896-8.8826-1.9223-9.3363-5.965-15.1068-5.3022-7.5202-5.1695-6.029-1.7898-19.3201l3.1813-12.0591c.4642-.6481 8.4833 7.6501 13.9173 14.3283 3.1151 3.89 5.7661 7.0021 5.8324 7.0021.3977 0-1.7231-10.3091-2.7173-13.2257-2.5184-7.586-10.6041-21.5257-17.0324-29.2406-1.5241-1.8154-5.633-6.1593-9.2119-9.7903s-6.495-6.872-6.495-7.196c0-1.1024 2.8499-2.6585 5.6996-3.1772 1.3926-.1944 2.9824-.713 3.4463-1.1021.5296-.3893 2.2532-3.4363 3.8443-6.678 1.7891-3.6953 3.6447-6.4831 4.7709-7.2612.9945-.7131 4.5075-1.9451 7.7543-2.723 3.3141-.7781 8.6819-2.3344 11.9292-3.566 6.8925-2.4637 7.8875-2.6578 7.3565-1.2321zm-75.0876 61.3331c.9281 1.1671 3.6451 5.3166 6.0968 9.2714l7.1577 11.0219 2.585 3.8898-1.7229 3.0472c-3.1159 5.4461-7.224 19.3207-10.273 34.8807-1.723 8.9471-3.9101 15.69-4.904 15.3658-1.6568-.5188-6.5614-8.4284-15.2429-24.4427l-11.0677-20.0984c-1.8558-3.0465-1.9887-3.6953-1.2594-4.8624.464-.7132 6.1638-7.78 12.7246-15.7548 7.6215-9.2065 12.3271-14.3932 13.1223-14.3932.6628 0 1.9226.9726 2.7835 2.0747zm35.2576-333.9594c-11.0678.3889-16.8333 1.2314-25.5155 3.7603-4.0427 1.1667-4.1756 1.2963-1.7895 1.2963 1.4583.0649 6.164-.2592 10.5379-.648 6.627-.6483 9.8081-.5834 19.6166.3888 11.5977 1.1025 11.7968 1.1025 19.0203-.2594 9.0796-1.6857 16.2374-4.0199 14.448-4.7327-1.3918-.5189-19.7497-.454-36.3178.1947zm-9.2128 17.5048l-8.947 1.2321c-4.9703.9723-20.6772 5.3162-20.4117 5.6405.1984.1296 3.6447-.3243 7.8199-1.1023 4.1094-.713 11.5316-1.6211 16.5018-2.0748 8.019-.6482 9.941-.5835 16.2372.3889 10.4049 1.6859 14.3153 1.4912 21.6712-.9079 11.5323-3.8895 11.5979-3.8249-9.0793-3.7598-10.2059 0-20.9425.2592-23.7921.5833zM262.65 151.0239c-9.2782 2.5288-19.6167 8.1692-28.895 15.8845-3.4459 2.9172-7.3562 7.5206-7.3562 8.6874 0 1.2321 12.6581-.1942 17.5624-1.88l8.0188-2.8526c1.7897-.6482 7.0246-1.6856 11.4655-2.2695 6.8263-.9074 9.0132-.9718 12.9237-.324 6.5602 1.1024 11.2 3.2417 12.2596 5.7705 1.9224 4.4736-1.5235 5.2517-5.6994 1.2968-3.9099-3.6958-11.4652-2.9179-20.1466 2.1394-6.3622 3.6306-12.1281 6.2239-19.9485 8.882-11.0014 3.7604-15.4415 6.1594-17.0324 9.0769-1.0604 2.01-.6628 2.269 2.9162 2.2043 3.6451 0 6.6276-.9079 12.5921-3.7604 3.9768-1.9452 13.1219-5.8346 19.0864-8.2341 1.3918-.5831 2.3198-.5184 3.9764.13 4.9041 1.9451 6.9592 2.2695 8.7488 1.3613.9271-.4539 1.6565-1.3613 1.6565-1.9449 0-1.2967 1.2596-2.5934 2.5845-2.5934.53 0 2.0542.713 3.3801 1.6207s4.3079 2.0103 6.6274 2.4637l4.3078.8434-.0666 3.5654-.596 13.0318-.531 9.5303 2.3862-.7129c2.7841-.8428 4.4403 0 4.4403 2.2692 0 2.334-6.6931 10.1144-12.1277 14.1335-6.2299 4.6035-13.9839 8.2991-26.9738 12.9021-18.7549 6.6133-22.4004 8.8824-25.515 15.69-3.4463 7.5855-2.7833 17.5699 1.7896 25.9335 1.8556 3.4361 5.103 7.0022 6.4288 7.0022.1981 0 1.1926-3.1771 2.187-7.067 2.4516-10.0492 12.3925-31.7038 16.236-35.2696 1.1933-1.0376 3.7783-2.2693 6.4954-3.0475 4.1086-1.1669 4.7056-1.1669 6.0969-.3244 1.856 1.2324 2.5187 3.5014 1.856 6.6782-.729 3.7606-.6624 4.0845 3.1144 10.5033 4.7722 8.3637 13.3213 16.8569 20.4124 20.2931 13.1883 6.4831 21.9371 5.7701 31.1487-2.4638 3.9104-3.5661 5.3017-4.3442 9.411-5.511 11.5977-3.3064 14.1157-5.2516 19.2856-14.847 4.1753-7.7151 4.5066-7.9746 6.9583-4.4736 1.0602 1.5561 2.452 3.8251 3.0489 5.0574s1.8555 3.6954 2.7839 5.3808c1.7891 3.5013 4.9039 13.356 4.9039 15.7548 0 2.9178 1.193 2.1395 3.1813-2.2691 3.2467-7.0671 4.3738-11.5406 4.3738-17.5698.0663-4.9275-.1328-5.9002-1.9218-9.0121-2.585-4.6034-7.9532-9.2715-16.37-14.1338-6.2297-3.6309-9.8084-6.6131-12.3265-10.3085-.7289-1.0375-.7954-.4539-.4641 3.6307.4641 5.6403 1.1934 8.8171 2.9822 13.0961 2.5186 5.8354 1.4583 9.4012-4.2412 14.6525-4.9047 4.5387-8.7479 6.1592-13.5867 5.8352-4.6385-.3243-7.8201-1.8155-11.1995-5.1218-5.5008-5.4463-7.8865-13.1614-8.2177-26.5173l-.1991-8.1042 4.9046.2597 4.9704.1941-1.127-1.4909c-5.1692-7.067-7.2238-14.9768-8.4167-32.9358-.5306-8.234-.9944-10.9569-2.7176-15.884-6.4946-18.9966-15.5738-25.2857-37.7094-26.0634-7.2231-.2595-9.013-.0653-14.1163 1.2316zm37.842 78.6434c1.9889 1.3619 2.5853 2.9176 4.4409 11.9298 2.319 11.1512 2.3857 11.67 1.2585 12.1239-2.6504.9724-11.5313-5.9-11.5313-8.8825 0-.6483-.8611-2.2041-1.9882-3.5655-2.6508-3.2421-2.7166-6.5484-.1984-9.4009 2.7835-3.242 5.4337-3.9551 8.0185-2.2048zm43.2104-37.0203c0 .5192 1.9219 2.9828 4.3082 5.4465 7.2893 7.5855 14.1824 9.2717 22.2009 5.5108 2.3862-1.1021 5.0368-2.658 5.9651-3.4363l1.657-1.4262-2.9826.454c-1.657.2596-6.4288.4535-10.604.4535-8.8142 0-10.4709-.5181-16.0375-4.9922-4.1089-3.2415-4.5071-3.4359-4.5071-2.0101zm-93.3789 7.3919c-.7957.5179-.7957.778-.1329 1.6202 1.3253 1.4914 6.4291 2.7881 13.1223 3.307 5.2359.3891 6.2295.3243 8.6158-.908 2.9158-1.4264 4.8373-3.0473 4.8373-4.0192 0-.7785-25.1834-.7785-26.4425 0zm6.0968 77.0877c-4.043 4.9918-5.6334 9.0766-5.3682 13.5497.2652 3.7611 1.4581 4.0852 3.2475.843 2.7835-5.0575 4.7055-5.0575 16.038.0651 17.9602 8.104 28.3651 10.6319 43.8729 10.5674 15.7733-.0643 22.2682-2.2043 37.3784-12.1235 4.3079-2.7883 7.0912-4.2147 7.2235-3.7608s1.326 2.075 2.7178 3.6306c1.3253 1.5563 2.8498 3.5012 3.4459 4.3442.6624.8432 1.3258 1.3616 1.5246 1.1673.596-.6481 2.3854-12.4488 2.3854-16.0791v-3.4363l-2.4518.4537c-3.5124.584-7.953 2.3989-12.1282 4.7974-16.4361 9.531-27.901 11.8654-44.6017 9.0767-17.7614-2.917-39.7643-10.373-45.5967-15.4299-1.3252-1.1672-2.8495-2.0748-3.3133-2.0748-.5299 0-2.5186 2.0095-4.3741 4.4093zm18.0925 28.1373c-.9939 1.3621-.795 1.6209 4.1091 6.6137 3.7777 3.8242 5.9647 6.872 8.2843 11.216 3.579 6.7425 4.1084 7.0018 9.7421 5.0569 5.7659-2.0095 17.3638-.6479 24.5209 2.9174 2.2536 1.1023 4.1755 1.9447 4.3082 1.8159l3.5123-6.6779c2.3197-4.3445 4.9707-8.1697 8.0855-11.6055 2.5183-2.7881 4.6387-5.6409 4.6387-6.289 0-.713-.1323-1.2323-.2646-1.2323-.199 0-2.055 1.0376-4.1755 2.2694-4.7053 2.7235-12.7904 4.6682-21.7376 5.2519-8.1517.5181-11.7968-.3244-23.527-5.1866-7.2903-3.1118-14.4477-5.5761-15.9723-5.5761-.2648 0-.9939.6487-1.5241 1.4262z"/></svg>