<?xml version="1.0" standalone="no"?>
<!DOCTYPE svg PUBLIC "-//W3C//DTD SVG 20010904//EN"
 "http://www.w3.org/TR/2001/REC-SVG-20010904/DTD/svg10.dtd">
<svg version="1.0" xmlns="http://www.w3.org/2000/svg"
 width="249.000000pt" height="252.000000pt" viewBox="0 0 249.000000 252.000000"
 preserveAspectRatio="xMidYMid meet">

<g transform="translate(0.000000,252.000000) scale(0.100000,-0.100000)"
fill="#000000" stroke="none">
<path d="M1152 2278 c-22 -67 -20 -87 5 -50 19 27 49 29 63 2 6 -11 15 -18 20
-15 11 7 -45 125 -59 125 -5 0 -18 -28 -29 -62z m48 -5 c0 -7 -7 -13 -15 -13
-15 0 -21 31 -8 43 8 8 23 -12 23 -30z"/>
<path d="M1269 2290 c-1 -27 -2 -55 -3 -62 -1 -6 12 -16 27 -21 46 -15 77 13
77 68 0 50 -16 65 -69 65 -30 0 -31 -1 -32 -50z m85 7 c16 -26 -12 -72 -44
-72 -17 0 -25 5 -24 18 4 81 3 78 30 75 15 -2 32 -11 38 -21z"/>
<path d="M1028 2319 c-20 -11 -24 -44 -6 -55 6 -4 25 -10 42 -14 18 -3 31 -12
31 -20 0 -19 -42 -25 -61 -10 -11 10 -14 9 -14 -3 0 -32 62 -37 84 -5 21 29 5
56 -36 60 -17 2 -33 9 -36 15 -6 19 28 28 49 14 21 -13 26 -2 7 17 -15 15 -37
15 -60 1z"/>
<path d="M1420 2300 c-39 -39 -12 -120 40 -120 24 0 60 33 61 58 5 71 -55 108
-101 62z m82 -25 c9 -19 8 -29 -6 -50 -28 -43 -76 -27 -76 25 0 52 61 71 82
25z"/>
<path d="M950 2287 c0 -28 31 -117 39 -112 11 6 -18 125 -30 125 -5 0 -9 -6
-9 -13z"/>
<path d="M900 2233 l-1 -58 -40 44 c-21 24 -42 41 -45 38 -9 -9 77 -108 90
-104 14 5 21 137 6 137 -6 0 -10 -24 -10 -57z"/>
<path d="M1603 2214 c-14 -30 -22 -58 -18 -62 6 -6 20 11 28 32 2 5 13 3 25
-3 40 -21 80 6 65 44 -5 14 -52 45 -68 45 -3 0 -18 -25 -32 -56z m83 5 c12
-20 -13 -33 -41 -21 -22 10 -24 15 -15 32 9 16 15 18 30 10 10 -6 22 -15 26
-21z"/>
<path d="M728 2214 c-34 -18 -34 -22 -3 -84 26 -51 55 -72 33 -24 -16 35 5 48
45 28 40 -21 58 -11 19 11 -23 14 -29 22 -21 31 14 17 -6 54 -29 54 -9 -1 -29
-8 -44 -16z m58 -15 c4 -7 -4 -20 -17 -30 -21 -16 -26 -16 -39 -3 -13 14 -13
17 4 30 24 17 42 18 52 3z"/>
<path d="M1725 2175 c-30 -29 -32 -68 -5 -95 28 -28 64 -25 89 6 27 35 27 65
-2 92 -30 28 -52 28 -82 -3z m79 -17 c16 -25 -4 -72 -32 -76 -47 -7 -66 34
-36 76 18 26 51 26 68 0z"/>
<path d="M617 2139 l-36 -30 30 -44 c17 -24 35 -47 40 -51 11 -6 84 45 75 53
-3 3 -19 -5 -36 -17 -26 -19 -34 -20 -41 -9 -13 21 -11 27 16 45 14 9 22 21
19 26 -3 5 -16 0 -29 -12 -23 -22 -45 -20 -45 3 0 6 12 21 28 33 15 12 24 25
21 28 -3 3 -21 -8 -42 -25z"/>
<path d="M1846 2080 c-38 -52 -50 -92 -16 -51 28 33 50 21 50 -29 0 -22 5 -40
10 -40 6 0 10 12 10 28 0 19 7 30 23 37 35 16 33 48 -7 78 l-34 27 -36 -50z
m69 0 c27 -30 5 -49 -30 -26 -21 14 -24 20 -14 32 15 19 22 18 44 -6z"/>
<path d="M1108 2070 c-184 -33 -341 -120 -469 -258 -292 -316 -293 -803 -1
-1122 109 -120 249 -204 407 -246 104 -28 304 -26 408 4 231 66 415 218 523
434 184 367 68 818 -273 1056 -54 38 -168 91 -245 113 -82 23 -271 34 -350 19z
m294 -35 c181 -35 341 -134 460 -283 350 -441 154 -1092 -382 -1268 -77 -25
-99 -28 -235 -28 -130 -1 -160 2 -225 22 -347 109 -570 408 -573 767 -1 135
19 225 77 350 106 226 307 386 551 440 81 18 237 18 327 0z"/>
<path d="M997 1943 c-5 -9 -10 -50 -8 -70 1 -8 17 -13 46 -13 25 0 45 -2 45
-5 0 -3 -12 -23 -27 -45 -24 -37 -25 -44 -15 -79 7 -20 30 -66 53 -101 l40
-63 62 7 c96 10 206 42 234 68 33 30 61 86 69 137 14 90 -54 161 -152 161 -76
-1 -105 -18 -120 -70 -18 -60 -2 -76 32 -32 22 28 31 32 74 32 102 0 146 -89
81 -163 -26 -29 -40 -35 -119 -50 -49 -9 -97 -17 -108 -17 -12 0 -32 19 -52
49 -45 66 -46 114 -4 152 16 15 33 41 37 58 l7 31 -66 0 c-35 0 -68 5 -71 10
-7 12 -32 13 -38 3z"/>
<path d="M667 1514 c-14 -15 -6 -23 26 -26 l32 -3 3 -87 c2 -79 5 -88 22 -88
17 0 20 9 22 87 l3 88 30 5 c17 3 30 10 30 15 0 11 -157 19 -168 9z"/>
<path d="M915 1510 c-8 -13 -65 -181 -65 -192 0 -4 9 -8 21 -8 13 0 23 10 30
30 9 24 17 30 40 30 22 0 32 -7 44 -30 15 -29 55 -43 55 -20 0 6 -14 53 -32
105 -30 89 -34 95 -60 95 -15 0 -30 -5 -33 -10z m55 -106 c0 -2 -11 -4 -25 -4
-23 0 -25 3 -19 28 11 44 16 46 30 12 8 -18 14 -34 14 -36z"/>
<path d="M1080 1415 c0 -105 0 -106 23 -103 18 2 23 10 25 46 3 42 3 42 43 42
l39 0 0 -45 c0 -41 2 -45 25 -45 l25 0 0 105 0 105 -25 0 c-23 0 -25 -4 -25
-41 l0 -40 -42 3 c-41 3 -42 4 -43 38 0 29 -4 36 -22 38 -23 3 -23 2 -23 -103z"/>
<path d="M1355 1508 c-46 -124 -63 -189 -50 -194 19 -8 34 3 45 32 7 18 17 24
39 24 23 0 31 -6 40 -30 7 -20 17 -30 30 -30 28 0 27 12 -9 117 -16 48 -30 89
-30 90 0 10 -62 1 -65 -9z m50 -80 c6 -25 4 -28 -18 -28 -24 0 -25 1 -14 35
11 38 22 36 32 -7z"/>
<path d="M1527 1453 c-12 -118 -9 -145 11 -141 14 3 18 16 20 66 2 34 7 62 12
62 5 0 16 -24 24 -52 31 -103 52 -103 87 -1 l24 68 3 -50 c4 -78 10 -95 34
-95 20 0 21 3 14 77 -3 42 -6 89 -6 105 0 27 -3 29 -32 26 -28 -3 -33 -8 -50
-58 -10 -30 -21 -62 -24 -70 -3 -9 -15 14 -28 55 -20 65 -24 70 -52 73 l-31 3
-6 -68z"/>
<path d="M1236 1232 l-739 -2 7 -69 c22 -237 175 -465 386 -575 132 -68 188
-81 355 -81 137 1 157 3 229 28 157 55 286 150 377 280 82 117 136 278 127
382 l-3 40 -739 -3z m-476 -147 l5 -39 28 42 c17 26 35 42 47 42 26 0 25 -6
-5 -46 -26 -34 -31 -54 -17 -69 5 -6 19 -27 31 -47 l23 -38 -26 0 c-19 0 -30
10 -47 40 -13 22 -26 40 -31 40 -4 0 -8 -18 -8 -40 0 -36 -2 -40 -25 -40 -25
0 -25 0 -25 93 0 52 3 97 7 101 18 17 38 -1 43 -39z m275 23 c54 -48 41 -148
-23 -175 -49 -20 -95 -3 -117 43 -48 101 59 202 140 132z m179 14 c9 -15 -9
-27 -39 -27 -47 0 -45 -30 4 -54 22 -12 42 -30 46 -41 16 -49 -53 -92 -112
-69 -33 12 -20 26 27 31 51 4 52 32 2 57 -22 11 -42 27 -46 36 -7 20 8 50 32
64 20 12 79 14 86 3z m86 -32 l0 -40 40 0 40 0 0 41 c0 33 3 40 18 37 15 -3
17 -17 20 -101 3 -97 2 -98 -20 -95 -18 2 -22 10 -23 38 0 33 -2 35 -37 38
l-38 3 0 -40 c0 -34 -3 -41 -20 -41 -19 0 -20 7 -20 100 0 93 1 100 20 100 17
0 20 -7 20 -40z m278 23 c-2 -14 -11 -17 -36 -15 -28 3 -32 1 -32 -22 0 -21 5
-25 33 -28 20 -2 32 -8 32 -18 0 -10 -12 -16 -32 -18 -27 -3 -33 -7 -33 -28 0
-21 4 -24 40 -24 29 0 40 -4 40 -15 0 -12 -14 -15 -65 -15 l-65 0 0 93 c0 52
3 97 7 100 3 4 31 7 60 7 47 0 54 -3 51 -17z m160 1 c26 -18 29 -50 7 -74 -14
-15 -14 -20 0 -46 21 -41 19 -64 -5 -64 -15 0 -22 9 -26 30 -13 61 -54 64 -54
4 0 -27 -4 -34 -20 -34 -19 0 -20 7 -20 93 0 52 3 97 7 100 12 13 89 7 111 -9z"/>
<path d="M947 1082 c-19 -21 -22 -73 -7 -103 12 -21 52 -26 68 -6 20 25 18 89
-4 111 -20 21 -37 20 -57 -2z"/>
<path d="M1667 1093 c-4 -3 -7 -17 -7 -30 0 -18 6 -23 24 -23 13 0 27 7 30 16
11 28 -27 57 -47 37z"/>
<path d="M501 2046 l-23 -25 37 -45 c45 -55 74 -66 43 -16 -10 16 -9 23 11 44
19 20 21 28 12 45 -16 28 -52 27 -80 -3z m63 -5 c3 -5 -3 -19 -13 -32 -16 -20
-21 -22 -35 -10 -15 13 -15 15 0 32 18 20 39 25 48 10z"/>
<path d="M440 1983 c0 -4 16 -24 36 -44 24 -24 35 -43 31 -54 -12 -29 -36 -28
-77 5 -54 43 -60 34 -11 -14 32 -31 44 -37 65 -32 30 7 50 39 41 65 -6 19 -85
88 -85 74z"/>
<path d="M1985 1945 c-27 -24 -46 -47 -42 -51 4 -4 16 1 27 11 18 17 22 17 36
4 12 -12 13 -21 4 -43 -12 -34 -13 -46 -1 -46 5 0 12 14 16 30 5 23 12 30 30
30 44 0 43 52 -2 92 -17 15 -21 14 -68 -27z m71 -2 c17 -23 18 -43 1 -43 -19
0 -50 37 -42 49 9 16 26 13 41 -6z"/>
<path d="M336 1841 c-22 -24 -17 -65 7 -69 11 -2 30 6 43 19 18 17 27 20 35
12 16 -16 3 -44 -21 -50 -26 -7 -26 -23 0 -23 23 0 53 41 48 66 -6 33 -33 39
-66 16 -16 -12 -35 -22 -42 -22 -20 0 -6 34 18 45 12 5 22 13 22 17 0 15 -27
8 -44 -11z"/>
<path d="M2073 1826 c-51 -14 -65 -26 -29 -26 34 0 56 -40 36 -65 -7 -8 -10
-18 -6 -22 7 -8 5 -11 49 56 49 73 41 82 -50 57z m57 -15 c0 -5 -7 -14 -16
-22 -13 -10 -17 -10 -24 2 -7 10 -4 16 8 21 24 9 32 9 32 -1z"/>
<path d="M2145 1723 c-63 -32 -60 -27 -45 -63 18 -43 42 -54 71 -31 13 9 32
20 42 24 9 3 17 13 17 22 0 14 -27 76 -33 75 -1 -1 -24 -13 -52 -27z m60 -23
c3 -11 3 -25 0 -30 -10 -16 -35 8 -35 31 0 25 27 24 35 -1z m-47 -24 c8 -19 8
-27 -3 -36 -11 -9 -17 -6 -31 15 -15 23 -15 28 -3 36 21 13 25 11 37 -15z"/>
<path d="M316 1654 c-9 -22 3 -32 14 -14 12 19 12 30 1 30 -5 0 -12 -7 -15
-16z"/>
<path d="M210 1560 c0 -5 16 -12 35 -16 19 -3 35 -10 35 -14 0 -4 -20 -15 -45
-25 -26 -9 -44 -22 -42 -28 2 -6 26 -17 53 -24 60 -15 64 -16 64 -3 0 5 -18
13 -40 16 -22 4 -40 9 -40 13 0 3 23 14 51 24 27 10 49 23 46 30 -2 6 -26 17
-53 24 -59 15 -64 16 -64 3z"/>
<path d="M2203 1547 c-53 -12 -58 -32 -5 -23 l37 7 -33 -28 c-18 -15 -32 -31
-32 -35 0 -5 18 -8 40 -8 49 0 53 -17 5 -26 -32 -6 -50 -24 -24 -24 24 0 100
23 105 32 10 15 -17 28 -58 28 -21 0 -38 3 -38 8 0 4 18 17 40 30 41 23 54 53
23 51 -10 -1 -37 -6 -60 -12z"/>
<path d="M180 1421 c0 -5 23 -14 50 -20 62 -13 70 -14 70 -2 0 5 -23 14 -50
20 -62 13 -70 14 -70 2z"/>
<path d="M2212 1374 c-30 -21 -30 -77 0 -98 30 -22 60 -20 86 4 61 57 -17 142
-86 94z m76 -16 c18 -18 14 -56 -7 -68 -37 -19 -64 -10 -75 26 -13 41 51 73
82 42z"/>
<path d="M176 1348 c-19 -27 -21 -77 -3 -83 6 -2 36 -6 65 -10 56 -6 73 9 22
20 -44 10 -40 21 25 69 23 18 4 22 -26 6 -15 -8 -23 -7 -35 5 -21 20 -30 19
-48 -7z m42 -36 c3 -27 0 -32 -17 -32 -14 0 -21 6 -21 19 0 56 33 67 38 13z"/>
<path d="M2195 1231 c-10 -9 8 -21 31 -21 32 0 30 -16 -6 -48 -37 -33 -39 -50
-4 -27 25 16 28 16 36 1 13 -22 45 -20 58 4 6 12 10 35 8 53 -3 31 -4 32 -61
37 -32 3 -60 4 -62 1z m103 -53 c-3 -36 -30 -46 -36 -15 -5 26 5 47 23 47 12
0 15 -8 13 -32z"/>
<path d="M182 1208 c-7 -7 -12 -31 -12 -55 l0 -43 43 0 c68 0 87 9 87 39 0 44
-26 71 -69 71 -20 0 -42 -5 -49 -12z m94 -34 c9 -34 -6 -46 -52 -42 -66 5 -55
68 12 68 28 0 35 -4 40 -26z"/>
<path d="M242 1062 c-28 -20 -52 -42 -52 -49 0 -7 17 -15 38 -18 20 -4 49 -9
65 -11 16 -3 27 -1 27 5 0 6 -7 11 -15 11 -9 0 -20 12 -26 26 -7 21 -6 31 7
45 31 34 9 29 -44 -9z m18 -37 c0 -8 -9 -15 -20 -15 -22 0 -27 15 -7 23 21 9
27 7 27 -8z"/>
<path d="M2176 1078 c-3 -13 -6 -33 -6 -45 0 -25 43 -63 71 -63 28 0 59 36 59
70 0 27 -5 31 -52 45 -66 19 -65 19 -72 -7z m106 -44 c-6 -34 -27 -47 -59 -37
-28 9 -41 39 -29 68 4 11 12 11 48 0 33 -10 42 -17 40 -31z"/>
<path d="M2135 925 c-21 -54 -12 -74 10 -22 23 55 62 50 43 -4 -14 -41 -1 -51
14 -11 20 51 52 42 37 -11 -12 -44 -2 -47 16 -4 21 51 20 53 -27 70 -24 8 -50
18 -59 22 -13 5 -21 -4 -34 -40z"/>
<path d="M263 940 c-24 -11 -43 -24 -43 -30 0 -7 6 -8 19 -1 36 19 59 -38 26
-63 -38 -28 -9 -25 51 4 54 28 56 30 23 25 -33 -5 -37 -3 -44 22 -5 21 -1 31
17 45 31 23 6 22 -49 -2z"/>
<path d="M2102 838 c-23 -23 -12 -46 32 -72 25 -14 50 -26 56 -26 20 0 0 20
-41 40 -39 20 -53 50 -24 50 8 0 15 5 15 10 0 14 -23 13 -38 -2z"/>
<path d="M370 835 c0 -4 7 -19 15 -35 14 -27 14 -30 -5 -40 -16 -9 -22 -6 -35
21 -9 17 -19 29 -22 26 -2 -3 0 -14 6 -25 6 -12 11 -28 11 -36 0 -28 -29 -17
-46 17 -10 17 -19 27 -21 20 -5 -13 21 -68 36 -77 9 -6 97 39 106 54 7 11 -26
80 -37 80 -4 0 -8 -2 -8 -5z"/>
<path d="M2075 752 c8 -40 -7 -62 -43 -62 -15 0 -22 -4 -16 -8 12 -12 124 -35
131 -28 8 7 -21 62 -54 101 l-25 30 7 -33z m39 -58 c9 -22 8 -23 -14 -17 -21
5 -25 15 -13 26 11 11 20 8 27 -9z"/>
<path d="M383 697 c-66 -50 -56 -70 22 -42 21 8 41 12 43 10 2 -2 -10 -22 -27
-46 -35 -48 -29 -73 11 -46 49 33 83 66 69 67 -8 0 -25 -10 -38 -22 -33 -31
-37 -18 -8 22 30 40 22 53 -25 40 -52 -15 -58 -12 -22 11 17 12 32 25 32 30 0
15 -13 9 -57 -24z"/>
<path d="M1990 653 c1 -12 93 -83 100 -77 3 3 -15 24 -40 45 -44 38 -60 47
-60 32z"/>
<path d="M1919 580 c-9 -5 -24 -21 -33 -35 -16 -24 -15 -26 23 -66 41 -44 55
-44 93 -2 15 17 14 21 -25 65 -33 36 -46 45 -58 38z m29 -32 c9 -9 8 -16 -5
-30 -21 -23 -43 -23 -43 0 0 17 18 42 30 42 3 0 11 -5 18 -12z m38 -43 c6 -16
-12 -45 -28 -45 -15 0 -21 30 -8 45 16 19 29 19 36 0z"/>
<path d="M550 540 c0 -23 -5 -30 -19 -30 -29 0 -45 -25 -31 -49 11 -21 58 -57
64 -50 60 64 96 129 47 85 -27 -24 -41 -12 -41 35 0 21 -4 39 -10 39 -5 0 -10
-13 -10 -30z m30 -80 c0 -4 -6 -13 -13 -19 -19 -15 -63 29 -46 46 9 9 18 8 35
-4 13 -8 24 -19 24 -23z"/>
<path d="M660 481 c0 -6 11 -18 25 -27 27 -18 29 -22 16 -43 -7 -11 -13 -10
-35 4 -36 24 -44 13 -10 -14 22 -17 24 -23 14 -36 -11 -13 -16 -12 -42 6 -16
12 -31 19 -34 16 -5 -5 58 -57 69 -57 9 0 67 87 67 101 0 12 -20 30 -52 50
-12 6 -18 6 -18 0z"/>
<path d="M1792 467 c-28 -29 -28 -57 -1 -91 25 -31 61 -34 89 -6 27 27 25 66
-5 95 -30 31 -55 32 -83 2z m78 -29 c27 -49 -20 -89 -61 -52 -35 31 -17 88 26
82 10 -2 26 -15 35 -30z"/>
<path d="M736 363 c-29 -59 -28 -80 1 -45 18 21 19 21 42 3 20 -15 22 -21 12
-39 -8 -14 -8 -22 -2 -22 11 0 61 91 61 110 0 20 -18 9 -24 -15 -7 -28 -22
-31 -50 -10 -16 12 -18 19 -8 39 6 14 8 27 3 30 -4 3 -20 -20 -35 -51z"/>
<path d="M1689 405 c-36 -20 -44 -44 -21 -69 11 -12 22 -29 25 -38 8 -21 46
-24 72 -4 18 13 17 15 -5 70 -25 60 -31 63 -71 41z m29 -51 c-17 -9 -26 -9
-36 -1 -12 9 -10 15 9 30 22 18 24 18 36 1 11 -16 10 -20 -9 -30z m39 -31 c6
-17 -30 -34 -48 -22 -12 8 -11 12 6 24 21 16 37 15 42 -2z"/>
<path d="M1573 354 c-40 -17 -46 -38 -7 -24 58 23 78 -7 23 -35 -38 -20 -31
-31 10 -17 16 6 32 8 35 5 14 -14 4 -32 -24 -42 -16 -5 -30 -15 -30 -20 0 -15
5 -14 49 9 l39 19 -23 58 c-13 32 -27 58 -32 59 -4 1 -23 -4 -40 -12z"/>
<path d="M872 338 c-19 -19 -14 -36 18 -60 32 -23 40 -48 15 -48 -8 0 -23 10
-35 22 -17 18 -20 19 -20 5 0 -25 48 -53 69 -40 27 17 24 40 -8 69 -35 31 -38
39 -15 48 9 3 25 -4 40 -21 21 -23 24 -24 24 -6 0 26 -19 43 -50 43 -14 0 -31
-5 -38 -12z"/>
<path d="M1499 324 c-1 -5 0 -19 0 -31 3 -33 -14 -36 -49 -7 -42 36 -50 23 -8
-15 l33 -30 -18 -30 c-26 -44 -3 -38 24 6 l23 37 9 -27 c16 -50 25 -27 12 34
-12 56 -24 84 -26 63z"/>
<path d="M995 295 c-29 -28 -32 -61 -9 -93 15 -22 57 -30 80 -14 15 10 34 47
34 67 0 21 -44 65 -65 65 -9 0 -27 -11 -40 -25z m69 -11 c41 -41 -12 -117 -55
-78 -23 21 -24 51 -2 76 20 22 37 23 57 2z"/>
<path d="M1128 295 c-3 -4 3 -22 14 -41 l21 -35 -23 -24 c-35 -38 -17 -41 24
-5 l36 32 0 -33 c0 -23 3 -30 11 -22 5 5 9 36 7 69 -3 57 -7 58 -25 4 -4 -12
-7 -11 -18 5 -32 46 -41 56 -47 50z"/>
<path d="M1310 250 c0 -5 9 -10 20 -10 11 0 20 5 20 10 0 6 -9 10 -20 10 -11
0 -20 -4 -20 -10z"/>
</g>
</svg>
